<?xml version="1.0" encoding="utf-8"?>
<!-- Generator: Adobe Illustrator 26.0.1, SVG Export Plug-In . SVG Version: 6.00 Build 0)  -->
<svg version="1.1" id="Layer_1" xmlns="http://www.w3.org/2000/svg" xmlns:xlink="http://www.w3.org/1999/xlink" x="0px" y="0px"
	 viewBox="0 0 300 300" style="enable-background:new 0 0 300 300;" xml:space="preserve">
<style type="text/css">
	.st0{fill:#A4A4C4;}
</style>
<path class="st0" d="M129.3,245.4h114c0.7,0,1.5,0,2.3,0.1v-0.1c18.6,0,33.7-15.2,33.7-33.7c0-18.6-15.1-33.8-33.7-33.8
	c-2.6,0-5.4,0.3-8.2,1c-0.9,0.2-1.9,0.1-2.6-0.5c-0.7-0.5-1.3-1.3-1.4-2.3c-3.8-24-24.1-41.5-48.5-41.5c-27.1,0-49.1,22-49.1,49.1
	c0,1.3,0.1,2.6,0.2,3.9c0.1,1-0.3,1.9-1,2.6c-0.7,0.7-1.7,1-2.7,0.9c-1-0.1-2-0.2-3-0.2c-14.9,0-27.1,12.2-27.1,27.1
	C102.2,233.2,114.3,245.4,129.3,245.4 M129.1,184.5c0-0.2,0-0.5,0-0.7c0-30.8,25-55.8,55.8-55.8c26.4,0,48.8,18.2,54.4,43.7
	c2.1-0.4,4.2-0.5,6.3-0.5c22.3,0,40.4,18.1,40.4,40.4S267.8,252,245.5,252h-0.1c-0.5,0-13.2,0-30.1,0h-86.1
	c-18.6,0-33.7-15.1-33.7-33.7C95.5,199.7,110.6,184.6,129.1,184.5"/>
<path class="st0" d="M63.2,151.1c0-29.5,24-53.5,53.6-53.5c18.1,0,33.7,7.7,43.7,22.8c1,1.5,0.6,3.6-1,4.6c-1.5,1-3.6,0.6-4.6-0.9
	c-8.7-13.2-22.3-19.8-38.1-19.8c-25.9,0-46.9,21-46.9,46.9c0,16,8.1,30.8,21.5,39.5c1.5,1,2,3.1,1,4.6c-0.6,1-1.7,1.5-2.8,1.5
	c-0.6,0-1.2-0.2-1.8-0.5C72.4,186.2,63.2,169.4,63.2,151.1"/>
<path class="st0" d="M116.1,81.1c-1.9,0-3.3-1.5-3.3-3.3V51.3c0-1.8,1.5-3.3,3.3-3.3c1.8,0,3.3,1.5,3.3,3.3v26.5
	C119.4,79.6,117.9,81.1,116.1,81.1"/>
<path class="st0" d="M79.9,91.4c-0.5,0.3-1.2,0.5-1.7,0.5c-1.1,0-2.2-0.6-2.8-1.6L61.3,67.9c-0.9-1.6-0.5-3.6,1.1-4.6
	c1.6-1,3.6-0.5,4.6,1.1l13.9,22.5C81.9,88.4,81.4,90.5,79.9,91.4"/>
<path class="st0" d="M52.5,119.3c-0.5,0-1.1-0.1-1.6-0.4l-23.3-12.5c-1.6-0.9-2.2-2.8-1.4-4.5c0.9-1.6,2.9-2.2,4.5-1.3L54,113.1
	c1.6,0.9,2.2,2.9,1.3,4.5C54.8,118.7,53.6,119.3,52.5,119.3"/>
<path class="st0" d="M17.4,146.5L17.4,146.5l26.5,0.1c1.8,0,3.3,1.5,3.3,3.3c0,1.8-1.5,3.3-3.3,3.3l-26.5-0.1
	c-1.8,0-3.3-1.5-3.3-3.3C14.1,148,15.6,146.5,17.4,146.5"/>
<path class="st0" d="M27.8,194.5l23.3-12.7c1.6-0.9,3.6-0.3,4.5,1.3c0.9,1.6,0.3,3.6-1.3,4.5L31,200.3c-0.5,0.3-1,0.4-1.6,0.4
	c-1.2,0-2.3-0.6-2.9-1.7C25.6,197.3,26.2,195.3,27.8,194.5"/>
<path class="st0" d="M204.4,105.5l-23.3,12.7c-0.5,0.3-1.1,0.4-1.6,0.4c-1.2,0-2.3-0.6-2.9-1.7c-0.9-1.6-0.3-3.6,1.3-4.5l23.3-12.7
	c1.6-0.9,3.6-0.3,4.5,1.3C206.6,102.6,206,104.6,204.4,105.5"/>
<path class="st0" d="M75,209.5c1-1.5,3-2,4.6-1c1.6,1,2,3,1,4.6l-14.1,22.5c-0.6,1-1.7,1.6-2.8,1.6c-0.6,0-1.2-0.2-1.7-0.5
	c-1.6-1-2-3-1-4.6L75,209.5z M75,209.5"/>
<path class="st0" d="M157.2,90.5c-0.6,1-1.7,1.6-2.8,1.6c-0.6,0-1.2-0.2-1.8-0.5c-1.6-1-2-3-1-4.6l14-22.5c1-1.6,3-2,4.6-1
	c1.6,1,2,3,1,4.6L157.2,90.5z M157.2,90.5"/>
</svg>
