<?xml version="1.0" encoding="utf-8"?>
<!-- Generator: Adobe Illustrator 26.0.1, SVG Export Plug-In . SVG Version: 6.00 Build 0)  -->
<svg version="1.1" id="Layer_1" xmlns="http://www.w3.org/2000/svg" xmlns:xlink="http://www.w3.org/1999/xlink" x="0px" y="0px"
	 viewBox="0 0 300 300" style="enable-background:new 0 0 300 300;" xml:space="preserve">
<style type="text/css">
	.st0{fill:#A4A4C4;}
</style>
<g>
	<path class="st0" d="M280.5,155.4c-0.4-0.6-1.2-0.9-1.9-0.6c-7.2,2.4-14.8,3.6-22.4,3.6c-39.3,0-71.3-32-71.3-71.3
		c0-15.9,5.1-30.9,14.8-43.4c0.4-0.6,0.5-1.4,0-2c-0.4-0.6-1.2-0.8-1.9-0.6c-30.6,10.1-51.1,38.6-51.1,70.8c0,11,2.5,21.4,6.8,30.8
		c-1.8,0.2-3.5,0.5-5.3,1c-8.4-15.1-24.1-24.4-41.5-24.4c-25.5,0-46.4,20.2-47.4,45.7c-23.2,3.4-40.5,23.2-40.5,47
		c0,26.2,21.3,47.5,47.5,47.5h142.8c26.2,0,47.5-21.3,47.5-47.5c0-11.3-4-21.7-10.7-29.8c13.5-4.7,25.5-13.1,34.5-24.8
		C280.9,156.8,280.9,156,280.5,155.4z M209.1,255H66.3c-23.7,0-43-19.3-43-43c0-22.1,16.6-40.5,38.5-42.8l2-0.5v-2
		c0-23.7,19.3-43,43-43c16.3,0,31,9,38.3,23.6l0.8,1.6l1.8-0.5c4-1.1,8-1.7,12-1.7c15.6,0,30.1,8.5,37.6,22.2l0.8,1.4l1.6-0.4
		c27.6-6.1,52.4,15.2,52.4,42C252.2,235.7,232.9,255,209.1,255z M243.6,179.5c-10.5-11.2-26.3-17.3-43.2-14.1
		c-8.6-14.3-24-23.1-40.7-23.1c-0.9,0-1.8,0.1-2.7,0.2c-4.4-9.3-7-19.6-7-30.6c0-29,17.4-54.8,43.9-65.8
		c-8.1,12.2-12.3,26.2-12.3,41c0,41.1,33.5,74.6,74.6,74.6c6.1,0,12.2-0.8,18.2-2.2C266,168.9,255.4,175.6,243.6,179.5z"/>
</g>
</svg>
