<?xml version="1.0" encoding="utf-8"?>
<!-- Generator: Adobe Illustrator 26.0.1, SVG Export Plug-In . SVG Version: 6.00 Build 0)  -->
<svg version="1.1" id="Layer_1" xmlns="http://www.w3.org/2000/svg" xmlns:xlink="http://www.w3.org/1999/xlink" x="0px" y="0px"
	 viewBox="0 0 300 300" style="enable-background:new 0 0 300 300;" xml:space="preserve">
<style type="text/css">
	.st0{fill:#A4A4C4;}
</style>
<path class="st0" d="M108.4,190.6h125.4c0.8,0,1.7,0,2.5,0.1v-0.1c20.5,0,37.1-16.6,37.1-37.1c0-20.5-16.7-37.1-37.1-37.1
	c-2.9,0-5.9,0.4-9,1.1c-1,0.3-2,0.1-2.9-0.5c-0.8-0.6-1.4-1.5-1.6-2.5c-4.1-26.4-26.6-45.6-53.3-45.6c-29.8,0-54,24.3-54,54
	c0,1.5,0.1,2.9,0.2,4.4c0.1,1.1-0.3,2.2-1.1,2.9c-0.7,0.8-1.8,1.1-2.9,1c-1.1-0.1-2.2-0.2-3.3-0.2c-16.4,0-29.8,13.4-29.8,29.8
	C78.6,177.2,92,190.6,108.4,190.6 M108.2,123.7v-0.8c0-33.8,27.5-61.3,61.3-61.3c29.1,0,53.6,20,59.8,48c2.3-0.4,4.7-0.6,6.9-0.6
	c24.5,0,44.4,19.9,44.4,44.4c0,24.5-20,44.4-44.4,44.4H108.4c-20.4,0-37.1-16.6-37.1-37.1C71.3,140.4,87.8,123.8,108.2,123.7"/>
<path class="st0" d="M63.7,84.4c2.3,0,4.6,0.2,7,0.6c6.2-28,30.7-48,59.8-48c12.6,0,24.8,3.8,35.1,11.1c1.7,1.2,2,3.4,0.9,5.1
	c-1.2,1.7-3.4,2-5.1,0.9c-9.1-6.4-19.8-9.7-30.9-9.7c-26.7,0-49.2,19.2-53.3,45.6c-0.1,1-0.7,1.9-1.6,2.5c-0.9,0.6-1.9,0.7-2.9,0.5
	c-3-0.7-6-1.1-9-1.1c-20.4,0-37.1,16.7-37.1,37.1c0,19.1,14.3,35,33.3,36.9c2,0.2,3.5,2,3.3,4c-0.2,1.9-1.8,3.3-3.6,3.3
	c-0.1,0-0.3,0-0.4,0c-22.7-2.3-39.8-21.3-39.8-44.2C19.3,104.4,39.2,84.4,63.7,84.4"/>
<path class="st0" d="M121.2,257.5c0,3,1.8,5.5,4,5.5h4.1c2.2,0,4-2.5,4-5.5v-28.7c0-3.1-1.8-5.5-4-5.5h-4.1c-2.2,0-4,2.5-4,5.5
	V257.5z M121.2,257.5"/>
<path class="st0" d="M172.2,257.5c0,3,1.8,5.5,4,5.5h4.1c2.2,0,4-2.5,4-5.5v-28.7c0-3.1-1.8-5.5-4-5.5h-4.1c-2.2,0-4,2.5-4,5.5
	V257.5z M172.2,257.5"/>
<path class="st0" d="M223.1,257.5c0,3,1.8,5.5,4,5.5h4.1c2.2,0,4-2.5,4-5.5v-28.7c0-3.1-1.8-5.5-4-5.5h-4.1c-2.2,0-4,2.5-4,5.5
	V257.5z M223.1,257.5"/>
</svg>
