<?xml version="1.0" encoding="utf-8"?>
<!-- Generator: Adobe Illustrator 26.0.1, SVG Export Plug-In . SVG Version: 6.00 Build 0)  -->
<svg version="1.1" id="Layer_1" xmlns="http://www.w3.org/2000/svg" xmlns:xlink="http://www.w3.org/1999/xlink" x="0px" y="0px"
	 viewBox="0 0 300 300" style="enable-background:new 0 0 300 300;" xml:space="preserve">
<style type="text/css">
	.st0{fill:#A4A4C4;}
</style>
<path class="st0" d="M108.7,187.4h124.4c0.8,0,1.7,0,2.5,0.1v-0.1c20.3,0,36.8-16.5,36.8-36.8c0-20.3-16.5-36.8-36.8-36.8
	c-2.9,0-5.9,0.4-8.9,1.1c-1,0.3-2,0.1-2.9-0.5c-0.8-0.6-1.4-1.4-1.6-2.5c-4.1-26.2-26.4-45.2-52.9-45.2c-29.6,0-53.6,24-53.6,53.6
	c0,1.4,0.1,2.9,0.2,4.3c0.1,1.1-0.3,2.1-1.1,2.9c-0.8,0.8-1.8,1.1-2.9,1c-1.1-0.1-2.2-0.2-3.3-0.2c-16.3,0-29.6,13.3-29.6,29.6
	S92.4,187.4,108.7,187.4 M108.5,121c0-0.2,0-0.5,0-0.8c0-33.5,27.3-60.9,60.9-60.9c28.9,0,53.2,19.8,59.4,47.6
	c2.3-0.4,4.6-0.6,6.9-0.6c24.3,0,44.1,19.8,44.1,44.1c0,24.3-19.8,44.1-44.1,44.1H108.7c-20.3,0-36.8-16.5-36.8-36.8
	C71.9,137.6,88.3,121.1,108.5,121"/>
<path class="st0" d="M64.4,82.1c2.2,0,4.6,0.2,6.9,0.6C77.4,54.8,101.8,35,130.6,35c12.5,0,24.6,3.8,34.9,11c1.6,1.2,2,3.4,0.9,5
	c-1.2,1.6-3.4,2-5.1,0.9c-9-6.3-19.7-9.7-30.7-9.7c-26.5,0-48.8,19-52.9,45.3c-0.2,1-0.7,1.9-1.6,2.5c-0.8,0.6-1.9,0.7-2.9,0.5
	c-3-0.7-6-1.1-8.9-1.1c-20.3,0-36.8,16.5-36.8,36.9c0,18.9,14.2,34.7,33,36.6c2,0.2,3.4,2,3.2,4c-0.2,1.8-1.8,3.2-3.6,3.2
	c-0.1,0-0.2,0-0.4,0c-22.5-2.3-39.5-21.2-39.5-43.8C20.3,101.8,40.1,82.1,64.4,82.1"/>
<path class="st0" d="M126.5,211c-1.7-0.9-3.8-0.2-4.7,1.6l-23.7,47.3c-0.9,1.7-0.2,3.8,1.6,4.7c0.5,0.2,1,0.4,1.6,0.4
	c1.3,0,2.5-0.7,3.1-2l23.7-47.3C128.9,214,128.2,211.9,126.5,211"/>
<path class="st0" d="M166,211c-1.7-0.9-3.8-0.2-4.7,1.6l-23.7,47.3c-0.9,1.7-0.2,3.8,1.6,4.7c0.5,0.2,1,0.4,1.6,0.4
	c1.3,0,2.5-0.7,3.2-2l23.7-47.3C168.4,214,167.7,211.9,166,211"/>
<path class="st0" d="M205.4,211c-1.7-0.9-3.8-0.2-4.7,1.6L177,259.9c-0.9,1.7-0.2,3.8,1.6,4.7c0.5,0.2,1,0.4,1.6,0.4
	c1.3,0,2.5-0.7,3.1-2l23.7-47.3C207.8,214,207.1,211.9,205.4,211"/>
</svg>
