<?xml version="1.0" encoding="utf-8"?>
<!-- Generator: Adobe Illustrator 26.0.1, SVG Export Plug-In . SVG Version: 6.00 Build 0)  -->
<svg version="1.1" id="Layer_1" xmlns="http://www.w3.org/2000/svg" xmlns:xlink="http://www.w3.org/1999/xlink" x="0px" y="0px"
	 viewBox="0 0 300 300" style="enable-background:new 0 0 300 300;" xml:space="preserve">
<style type="text/css">
	.st0{fill:#A4A4C4;}
	.st1{fill:#A4A3C4;}
	.st2{fill:none;}
</style>
<path class="st0" d="M62.4,99.1c2.2,0,4.6,0.2,6.9,0.6C75.4,71.8,99.8,52,128.6,52c12.5,0,24.6,3.8,34.9,11c1.6,1.2,2,3.4,0.9,5
	c-1.2,1.6-3.4,2-5.1,0.9c-9-6.3-19.7-9.7-30.7-9.7c-26.5,0-48.8,19-52.9,45.3c-0.2,1-0.7,1.9-1.6,2.5c-0.8,0.6-1.9,0.7-2.9,0.5
	c-3-0.7-6-1.1-8.9-1.1c-20.3,0-36.8,16.5-36.8,36.9c0,18.9,14.2,34.7,33,36.6c2,0.2,3.4,2,3.2,4c-0.2,1.8-1.8,3.2-3.6,3.2
	c-0.1,0-0.2,0-0.4,0c-22.5-2.3-39.5-21.2-39.5-43.8C18.3,118.8,38.1,99.1,62.4,99.1"/>
<path class="st1" d="M155.7,136.4c-1.1,0-2.4,0.3-3.3,1c-0.9,0.7-1.6,1.6-1.9,2.7v0.1l-13.4,54.8v0.1c-0.4,1.7,0.3,3.7,1.7,4.8
	c1,0.8,2.3,1.3,3.5,1.3c0.4,0,0.8-0.1,1.3-0.2h0.1l23.2-5.7l-12.2,49.8c0,0,0,0.1,0,0.1c-0.3,1.2-0.1,2.7,0.5,3.7
	c0.7,1.1,1.8,1.9,3,2.3h0.3c0.5,0.1,0.8,0.2,1.3,0.2c1.9,0,4-1.2,4.9-2.9v-0.1l35.8-76.8c0.7-1.6,0.3-3.7-0.7-5.1
	c-0.1-0.1,0-0.3-0.1-0.4l-0.8,0.6l0.7-0.7c-1-1-2.4-1.7-3.8-1.7c-0.6,0-0.9,0.1-1.3,0.2l-22.1,5.5l9.8-26.5c0-0.1,0.1-0.1,0.1-0.2
	c0.3-0.6,0.5-1.2,0.5-2c0-1.3-0.6-2.7-1.6-3.6c-1-1-2.4-1.5-3.7-1.5H155.7z M155.7,141h21.8c0.3,0,0.4,0,0.5,0.2
	c0.2,0.2,0.1,0.1,0.1,0.3c0-0.1,0-0.1-0.1,0.1v0.2l-0.1,0.1l-11.3,30.7l-1.6,4.1l4.3-1l26.4-6.4c0.3-0.1,0.4-0.1,0.2-0.1
	c0.2,0,0.3,0,0.5,0.2c0,0,0,0.1,0,0.1c0.1,0.1,0.2,0,0.1,0.3l-35.8,76.7c0,0.1-0.1,0-0.1,0.1c-0.1,0.3-0.1,0.3-0.6,0.3
	c0.1,0-0.2,0-0.3,0c-0.1,0-0.2-0.1-0.2-0.1c0,0-0.1-0.1-0.1-0.2c-0.1-0.1-0.1,0-0.1-0.2l13.1-53.7l0.9-3.7l-3.7,0.9l-26.9,6.7h-0.1
	c0.2,0,0,0-0.2,0c-0.3,0-0.4-0.1-0.5-0.2c-0.2-0.1-0.1-0.1-0.1-0.2v-0.1l13.3-54.6v-0.1c0-0.1,0.1-0.1,0.2-0.2
	C155.3,141.1,155.4,141,155.7,141L155.7,141z M155.7,141"/>
<path class="st0" d="M233.6,123.4c-2.2,0-4.5,0.2-6.8,0.6c0,0,0,0-0.1,0c-6.1-27.8-30.5-47.6-59.4-47.6c-33.5,0-60.8,27.3-60.8,60.8
	c0,0.3,0,0.5,0,0.8C86,138.1,69.5,155.1,70,175.7c0.5,20.1,17.4,35.9,37.5,35.9H135c0,0,0,0,0,0c2.1,0.2,4-1.5,4-3.6
	c0-2.1-1.8-3.8-4-3.6c-4.6,0-9.2,0-13.8,0c-6.9,0-13.8,0-13.8,0c-16.1,0-29.7-12.6-30.2-28.7c-0.5-16.7,13-30.4,29.5-30.4
	c1.1,0,2.2,0.1,3.3,0.2c1.1,0.1,2.1-0.3,2.9-1c0.8-0.8,1.1-1.8,1.1-2.9c-0.1-1.4-0.2-2.9-0.2-4.3c0-29.6,24-53.6,53.6-53.6
	c26.5,0,48.8,19,52.9,45.2c0.2,1,0.7,1.9,1.5,2.5c0.9,0.6,1.9,0.8,2.9,0.5c3-0.7,6-1.1,8.9-1.1c20.3,0,36.8,16.5,36.8,36.8
	c0,20.3-16.5,36.8-36.8,36.8v0.1c-0.8-0.1-1.7-0.1-2.5-0.1c0,0-32.1,0-32.1,0c-1.7,0.3-3,1.8-3,3.6c0,1.7,1.3,3.2,3,3.6c0,0,0,0,0,0
	c0,0,0,0,0,0h34.5c24.3,0,44.1-19.8,44.1-44.1C277.7,143.2,257.9,123.4,233.6,123.4z M195,207"/>
<path class="st2" d="M270.4,167.5c0,20.3-16.5,36.8-36.8,36.8v0.1c-0.8-0.1-1.7-0.1-2.5-0.1H199V237h-64v-32.7h-28.3
	c-16.3,0-29.6-13.3-29.6-29.5s13.3-29.6,29.6-29.6c1.1,0,2.2,0.1,3.3,0.2c1.1,0.1,2.1-0.3,2.9-1c0.8-0.8,1.1-1.8,1.1-2.9
	c-0.1-1.4-0.2-2.9-0.2-4.3c0-29.6,24-53.6,53.6-53.6c26.5,0,48.8,19,52.9,45.2c0.2,1,0.7,1.9,1.5,2.5c0.9,0.6,1.9,0.8,2.9,0.5
	c3-0.7,6-1.1,8.9-1.1C253.9,130.7,270.4,147.2,270.4,167.5z"/>
</svg>
