<?xml version="1.0" encoding="utf-8"?>
<!-- Generator: Adobe Illustrator 26.0.1, SVG Export Plug-In . SVG Version: 6.00 Build 0)  -->
<svg version="1.1" id="Layer_1" xmlns="http://www.w3.org/2000/svg" xmlns:xlink="http://www.w3.org/1999/xlink" x="0px" y="0px"
	 viewBox="0 0 800 800" style="enable-background:new 0 0 800 800;" xml:space="preserve">
<style type="text/css">
	.st0{fill:#A4A4C4;}
</style>
<path class="st0" d="M482.9,219.6c10.8-8.6,12.7-24.3,4.1-35.1c-8.6-10.8-24.3-12.7-35.1-4.1L482.9,219.6z M384.5,233.7
	c-10.8,8.6-12.7,24.3-4.1,35.1c8.6,10.8,24.3,12.7,35.1,4.1L384.5,233.7z M384.5,272.9c10.8,8.6,26.5,6.7,35.1-4.1
	c8.6-10.8,6.7-26.5-4.1-35.1L384.5,272.9z M348.1,180.4c-10.8-8.6-26.5-6.7-35.1,4.1c-8.6,10.8-6.7,26.5,4.1,35.1L348.1,180.4z
	 M375,253.3c0,13.8,11.2,25,25,25c13.8,0,25-11.2,25-25H375z M425,133.3c0-13.8-11.2-25-25-25c-13.8,0-25,11.2-25,25H425z
	 M425,253.3c0-13.8-11.2-25-25-25c-13.8,0-25,11.2-25,25H425z M375,546.7c0,13.8,11.2,25,25,25c13.8,0,25-11.2,25-25H375z
	 M317.1,580.4c-10.8,8.6-12.7,24.3-4.1,35.1c8.6,10.8,24.3,12.7,35.1,4.1L317.1,580.4z M415.5,566.3c10.8-8.6,12.7-24.3,4.1-35.1
	c-8.6-10.8-24.3-12.7-35.1-4.1L415.5,566.3z M415.5,527.1c-10.8-8.6-26.5-6.7-35.1,4.1c-8.6,10.8-6.7,26.5,4.1,35.1L415.5,527.1z
	 M451.8,619.6c10.8,8.6,26.5,6.7,35.1-4.1c8.6-10.8,6.7-26.5-4.1-35.1L451.8,619.6z M425,546.7c0-13.8-11.2-25-25-25
	c-13.8,0-25,11.2-25,25H425z M375,666.7c0,13.8,11.2,25,25,25c13.8,0,25-11.2,25-25H375z M200.4,418.9c-12.9-5-27.4,1.4-32.3,14.3
	c-5,12.9,1.4,27.4,14.3,32.3L200.4,418.9z M262.6,496.6c12.9,5,27.4-1.4,32.3-14.3c5-12.9-1.4-27.4-14.3-32.3L262.6,496.6z
	 M296.4,477.1c2.1-13.6-7.3-26.4-20.9-28.5c-13.6-2.1-26.4,7.3-28.5,20.9L296.4,477.1z M234,553.9c-2.1,13.6,7.3,26.4,20.9,28.5
	c13.6,2.1,26.4-7.3,28.5-20.9L234,553.9z M284.1,495c12-6.8,16.2-22.1,9.3-34.1c-6.9-12-22.1-16.2-34.1-9.3L284.1,495z M154.3,511.6
	c-12,6.9-16.2,22.1-9.3,34.1c6.9,12,22.1,16.2,34.1,9.3L154.3,511.6z M259.3,451.6c-12,6.8-16.2,22.1-9.3,34.1
	c6.9,12,22.1,16.2,34.1,9.3L259.3,451.6z M540.7,348.4c12-6.8,16.2-22.1,9.3-34.1c-6.8-12-22.1-16.2-34.1-9.3L540.7,348.4z
	 M599.6,381c12.9,5,27.4-1.4,32.3-14.3c5-12.9-1.4-27.4-14.3-32.3L599.6,381z M537.3,303.3c-12.9-5-27.4,1.4-32.3,14.3
	c-5,12.9,1.4,27.4,14.3,32.3L537.3,303.3z M503.6,322.9c-2.1,13.6,7.3,26.4,20.9,28.5c13.6,2.1,26.4-7.3,28.5-20.9L503.6,322.9z
	 M566,246.1c2.1-13.6-7.3-26.4-20.9-28.5c-13.6-2.1-26.4,7.3-28.5,20.9L566,246.1z M515.9,305c-12,6.8-16.2,22.1-9.3,34.1
	c6.8,12,22.1,16.2,34.1,9.3L515.9,305z M645.7,288.4c12-6.9,16.2-22.1,9.3-34.1c-6.9-12-22.1-16.2-34.1-9.3L645.7,288.4z
	 M182.3,334.4c-12.9,5-19.3,19.5-14.3,32.3c5,12.9,19.5,19.3,32.3,14.3L182.3,334.4z M280.7,350c12.9-5,19.3-19.5,14.3-32.3
	c-5-12.9-19.5-19.3-32.3-14.3L280.7,350z M247,330.5c2.1,13.6,14.9,23,28.5,20.9c13.6-2.1,23-14.9,20.9-28.5L247,330.5z
	 M283.4,238.5c-2.1-13.6-14.9-23-28.5-20.9c-13.6,2.1-23,14.9-20.9,28.5L283.4,238.5z M259.3,348.4c12,6.9,27.3,2.7,34.1-9.3
	c6.9-12,2.7-27.3-9.3-34.1L259.3,348.4z M179.1,245c-12-6.9-27.3-2.7-34.1,9.3c-6.9,12-2.7,27.3,9.3,34.1L179.1,245z M284.1,305
	c-12-6.9-27.3-2.7-34.1,9.3c-6.9,12-2.7,27.3,9.3,34.1L284.1,305z M515.9,495c12,6.9,27.3,2.7,34.1-9.3s2.7-27.3-9.3-34.1L515.9,495
	z M617.7,465.6c12.9-5,19.3-19.5,14.3-32.3c-5-12.9-19.5-19.3-32.3-14.3L617.7,465.6z M519.3,450c-12.9,5-19.3,19.5-14.3,32.3
	c5,12.9,19.5,19.3,32.3,14.3L519.3,450z M553,469.5c-2.1-13.6-14.9-23-28.5-20.9c-13.6,2.1-23,14.9-20.9,28.5L553,469.5z
	 M516.6,561.5c2.1,13.6,14.9,23,28.5,20.9c13.6-2.1,23-14.9,20.9-28.5L516.6,561.5z M540.7,451.6c-12-6.9-27.3-2.7-34.1,9.3
	c-6.8,12-2.7,27.3,9.3,34.1L540.7,451.6z M620.9,555c12,6.9,27.3,2.7,34.1-9.3c6.9-12,2.7-27.3-9.3-34.1L620.9,555z M451.8,180.4
	l-67.4,53.3l31,39.2l67.4-53.3L451.8,180.4z M415.5,233.7l-67.4-53.3l-31,39.2l67.4,53.3L415.5,233.7z M425,253.3v-120h-50v120H425z
	 M375,253.3v293.3h50V253.3H375z M348.1,619.6l67.4-53.3l-31-39.2l-67.4,53.3L348.1,619.6z M384.5,566.3l67.4,53.3l31-39.2
	l-67.4-53.3L384.5,566.3z M375,546.7v120h50v-120H375z M182.3,465.6l80.3,31.1l18-46.6l-80.3-31.1L182.3,465.6z M247,469.5l-13,84.4
	l49.4,7.6l13-84.4L247,469.5z M259.3,451.6l-105,60l24.8,43.4l105-60L259.3,451.6z M284.1,495l256.7-146.7L515.9,305L259.3,451.6
	L284.1,495z M617.7,334.4l-80.3-31.1l-18,46.6l80.3,31.1L617.7,334.4z M553,330.5l13-84.4l-49.4-7.6l-13,84.4L553,330.5z
	 M540.7,348.4l105-60L620.9,245l-105,60L540.7,348.4z M200.4,381l80.3-31.1l-18-46.6l-80.3,31.1L200.4,381z M296.4,322.9l-13-84.4
	l-49.4,7.6l13,84.4L296.4,322.9z M284.1,305l-105-60l-24.8,43.4l105,60L284.1,305z M259.3,348.4L515.9,495l24.8-43.4L284.1,305
	L259.3,348.4z M599.6,418.9L519.3,450l18,46.6l80.3-31.1L599.6,418.9z M503.6,477.1l13,84.4l49.4-7.6l-13-84.4L503.6,477.1z
	 M515.9,495l105,60l24.8-43.4l-105-60L515.9,495z"/>
</svg>
