<?xml version="1.0" encoding="utf-8"?>
<!-- Generator: Adobe Illustrator 26.0.1, SVG Export Plug-In . SVG Version: 6.00 Build 0)  -->
<svg version="1.1" id="Capa_1" xmlns="http://www.w3.org/2000/svg" xmlns:xlink="http://www.w3.org/1999/xlink" x="0px" y="0px"
	 viewBox="0 0 800 800" style="enable-background:new 0 0 800 800;" xml:space="preserve">
<style type="text/css">
	.st0{fill:#A4A4C4;}
</style>
<g>
	<path class="st0" d="M518.5,197.7c0-13.6-11-24.6-24.6-24.6H67.6C54,173,43,184,43,197.7s11,24.6,24.6,24.6h426.2
		C507.5,222.3,518.5,211.3,518.5,197.7z"/>
	<path class="st0" d="M732.4,274.2H235.5c-13.6,0-24.6,11-24.6,24.6s11,24.6,24.6,24.6h496.8c13.6,0,24.6-11,24.6-24.6
		S746,274.2,732.4,274.2z"/>
	<path class="st0" d="M616.1,424.6c13.6,0,24.6-11,24.6-24.6s-11-24.6-24.6-24.6H116.7c-13.6,0-24.6,11-24.6,24.6s11,24.6,24.6,24.6
		H616.1z"/>
	<path class="st0" d="M697.9,476.5H199.4c-13.6,0-24.6,11-24.6,24.6s11,24.6,24.6,24.6h498.6c13.6,0,24.6-11,24.6-24.6
		S711.5,476.5,697.9,476.5z"/>
	<path class="st0" d="M456,577.7H125.3c-13.6,0-24.6,11-24.6,24.6s11,24.6,24.6,24.6H456c13.6,0,24.6-11,24.6-24.6
		C480.6,588.7,469.6,577.7,456,577.7z"/>
</g>
</svg>
