<?xml version="1.0" encoding="utf-8"?>
<!-- Generator: Adobe Illustrator 26.0.1, SVG Export Plug-In . SVG Version: 6.00 Build 0)  -->
<svg version="1.1" id="Layer_1" xmlns="http://www.w3.org/2000/svg" xmlns:xlink="http://www.w3.org/1999/xlink" x="0px" y="0px"
	 viewBox="0 0 800 800" style="enable-background:new 0 0 800 800;" xml:space="preserve">
<style type="text/css">
	.st0{fill:#A4A4C4;}
</style>
<path class="st0" d="M486.5,314c0-17.6-6.3-32.8-18.8-45.3c-12.6-12.6-27.7-18.8-45.3-18.8c-5.3,0-10.4,0.5-15.2,1.6
	s-9.4,2.9-13.6,5.6l85.8,85.8c2.7-4.3,4.5-8.8,5.6-13.6C486,324.4,486.5,319.3,486.5,314z M621.3,484.8l-46.5-46.5
	c13.4-22.5,23.4-43.4,30.1-63c6.7-19.5,10-37.8,10-54.9c0-58.3-18.6-106-55.7-143.2c-37.2-37.2-82.8-55.7-136.8-55.7
	c-23.5,0-45.6,3.6-66.2,10.8c-20.6,7.2-39.2,17.8-55.7,31.7l-45.7-45.7c23-19.8,48.9-34.9,77.8-45.3c28.9-10.4,58.8-15.6,89.8-15.6
	c67.9,0,127.7,23.8,179.3,71.4S679,240.2,679,320.4c0,25.7-4.8,52-14.4,79S640.5,454.9,621.3,484.8z M495.4,541.8L233.1,279.5
	c-1.1,6.4-1.9,13.1-2.4,20.1c-0.5,7-0.8,13.9-0.8,20.9c0,38,15.8,81.4,47.3,130.3S357.1,554.1,422.4,614
	c13.9-12.3,26.9-24.5,38.9-36.5S484.7,553.5,495.4,541.8z M694.3,740.7l-154-154c-17.1,18.2-35.3,36.6-54.5,55.3s-40.4,37.7-63.4,57
	C336.3,625.7,272,557.7,229.5,494.9s-63.8-121-63.8-174.5c0-17.1,1.3-33.4,4-48.9c2.7-15.5,6.4-30.2,11.2-44.1L59,105.4l45.7-45.7
	L740,695L694.3,740.7z"/>
</svg>
