<?xml version="1.0" encoding="utf-8"?>
<!-- Generator: Adobe Illustrator 26.0.1, SVG Export Plug-In . SVG Version: 6.00 Build 0)  -->
<svg version="1.1" id="Layer_1" xmlns="http://www.w3.org/2000/svg" xmlns:xlink="http://www.w3.org/1999/xlink" x="0px" y="0px"
	 viewBox="0 0 300 300" style="enable-background:new 0 0 300 300;" xml:space="preserve">
<style type="text/css">
	.st0{fill:#A4A4C4;}
</style>
<path class="st0" d="M150.03,220.03c-38.03,0-68.98-30.95-68.98-68.99c0-38.03,30.95-68.98,68.98-68.98
	c38.03,0,68.95,30.95,68.95,68.98C218.98,189.08,188.07,220.03,150.03,220.03 M150.03,72.34c-43.42,0-78.74,35.29-78.74,78.71
	c0,43.39,35.32,78.72,78.74,78.72c43.39,0,78.72-35.33,78.72-78.72C228.75,107.63,193.42,72.34,150.03,72.34"/>
<path class="st0" d="M150.03,49.25c2.68,0,4.85-2.17,4.85-4.89V5.46c0-2.68-2.17-4.88-4.85-4.88c-2.71,0-4.88,2.2-4.88,4.88v38.91
	C145.15,47.08,147.32,49.25,150.03,49.25"/>
<path class="st0" d="M150.03,251.72c-2.71,0-4.88,2.17-4.88,4.88v38.92c0,2.67,2.17,4.84,4.88,4.84c2.68,0,4.85-2.17,4.85-4.84
	V256.6C154.88,253.89,152.71,251.72,150.03,251.72"/>
<path class="st0" d="M203.32,64.4c0.78,0.51,1.69,0.75,2.54,0.75c1.66,0,3.25-0.82,4.17-2.31l20.48-33.08
	c1.42-2.31,0.71-5.29-1.56-6.72c-2.3-1.42-5.32-0.71-6.71,1.56l-20.51,33.12C200.34,60,201.01,63.02,203.32,64.4"/>
<path class="st0" d="M96.71,236.57c-2.27-1.42-5.29-0.71-6.72,1.56l-20.47,33.08c-1.42,2.31-0.71,5.28,1.6,6.72
	c0.77,0.5,1.66,0.74,2.54,0.74c1.62,0,3.22-0.81,4.13-2.3l20.51-33.12C99.73,240.98,99.02,237.96,96.71,236.57"/>
<path class="st0" d="M243.59,105.39c0.78,0,1.55-0.17,2.3-0.58l34.34-18.37c2.38-1.25,3.25-4.24,2-6.61
	c-1.29-2.33-4.24-3.25-6.61-1.96l-34.34,18.37c-2.37,1.26-3.25,4.23-1.97,6.58C240.17,104.47,241.86,105.39,243.59,105.39"/>
<path class="st0" d="M54.07,196.47l-34.34,18.37c-2.38,1.26-3.25,4.2-2,6.58c0.88,1.66,2.54,2.58,4.3,2.58
	c0.78,0,1.56-0.17,2.27-0.58l34.34-18.37c2.4-1.28,3.29-4.23,2.04-6.61C59.39,196.1,56.44,195.18,54.07,196.47"/>
<path class="st0" d="M295.11,145.35l-38.95,0.1c-2.72,0-4.89,2.2-4.89,4.88c0.03,2.68,2.2,4.89,4.89,4.89h0.03l38.91-0.14
	c2.72,0,4.89-2.2,4.89-4.88C300,147.52,297.8,145.35,295.11,145.35"/>
<path class="st0" d="M48.68,150.91c0-2.68-2.17-4.85-4.89-4.85l-38.95,0.1c-2.72,0-4.89,2.2-4.85,4.88c0,2.72,2.17,4.89,4.85,4.89
	h0.03l38.95-0.14C46.51,155.79,48.68,153.62,48.68,150.91"/>
<path class="st0" d="M279.76,215.82l-34.21-18.71c-2.33-1.28-5.32-0.41-6.61,1.94c-1.28,2.37-0.4,5.35,1.97,6.64l34.17,18.65
	c0.74,0.44,1.55,0.61,2.33,0.61c1.73,0,3.39-0.91,4.27-2.51C282.98,220.07,282.1,217.08,279.76,215.82"/>
<path class="st0" d="M59.16,95.25L24.98,76.54c-2.37-1.28-5.32-0.4-6.6,1.97c-1.29,2.34-0.44,5.32,1.93,6.61l34.17,18.67
	c0.75,0.41,1.55,0.58,2.33,0.58c1.73,0,3.39-0.92,4.3-2.52C62.38,99.49,61.53,96.54,59.16,95.25"/>
<path class="st0" d="M210.47,237.92c-1.42-2.27-4.43-2.95-6.71-1.53c-2.27,1.42-2.99,4.44-1.56,6.72l20.64,33.01
	c0.95,1.49,2.51,2.31,4.14,2.31c0.88,0,1.76-0.23,2.57-0.75c2.31-1.42,2.99-4.44,1.56-6.71L210.47,237.92z M210.47,237.92"/>
<path class="st0" d="M89.6,62.98c0.91,1.49,2.51,2.31,4.13,2.31c0.89,0,1.76-0.28,2.58-0.75c2.27-1.42,2.95-4.44,1.56-6.72
	L77.19,24.78c-1.42-2.27-4.41-2.99-6.72-1.53c-2.26,1.42-2.94,4.41-1.52,6.67L89.6,62.98z M89.6,62.98"/>
</svg>
