<svg id="Layer_1" data-name="Layer 1" xmlns="http://www.w3.org/2000/svg" viewBox="0 0 293.33 222.44"><path d="M149.75,90.6a6.52,6.52,0,0,1-6.52-6.52V45.52a6.52,6.52,0,1,1,13,0V84.08A6.52,6.52,0,0,1,149.75,90.6Z" transform="translate(-3.08 -39)" style="fill:#a4a4c4"/><path d="M48.16,192.18H9.6a6.52,6.52,0,1,1,0-13H48.16a6.52,6.52,0,0,1,0,13Z" transform="translate(-3.08 -39)" style="fill:#a4a4c4"/><path d="M289.89,192.18H251.33a6.52,6.52,0,0,1,0-13h38.56a6.52,6.52,0,1,1,0,13Z" transform="translate(-3.08 -39)" style="fill:#a4a4c4"/><path d="M221.58,120.35A6.52,6.52,0,0,1,217,109.22L244.23,82a6.52,6.52,0,0,1,9.22,9.21l-27.26,27.27A6.52,6.52,0,0,1,221.58,120.35Z" transform="translate(-3.08 -39)" style="fill:#a4a4c4"/><path d="M77.91,120.35a6.5,6.5,0,0,1-4.6-1.91L46,91.17A6.52,6.52,0,0,1,55.26,82l27.26,27.26a6.52,6.52,0,0,1-4.61,11.13Z" transform="translate(-3.08 -39)" style="fill:#a4a4c4"/><path d="M110.87,98.33a6.53,6.53,0,0,1-6-4l-7.44-18a6.52,6.52,0,1,1,12-5l7.44,18a6.5,6.5,0,0,1-3.53,8.51A6.4,6.4,0,0,1,110.87,98.33Z" transform="translate(-3.08 -39)" style="fill:#a4a4c4"/><path d="M188.62,98.33a6.44,6.44,0,0,1-2.49-.5,6.51,6.51,0,0,1-3.53-8.51l7.44-18a6.52,6.52,0,1,1,12.05,5l-7.45,18A6.52,6.52,0,0,1,188.62,98.33Z" transform="translate(-3.08 -39)" style="fill:#a4a4c4"/><path d="M243.6,153.31a6.53,6.53,0,0,1-2.5-12.55l18-7.44a6.52,6.52,0,0,1,5,12.05l-18,7.44A6.4,6.4,0,0,1,243.6,153.31Z" transform="translate(-3.08 -39)" style="fill:#a4a4c4"/><path d="M55.89,153.31a6.44,6.44,0,0,1-2.49-.5l-18-7.44a6.52,6.52,0,1,1,5-12.05l18,7.44a6.52,6.52,0,0,1-2.5,12.55Z" transform="translate(-3.08 -39)" style="fill:#a4a4c4"/><path d="M213.14,229.59H86.35a6.53,6.53,0,0,1-5.61-3.2,80.13,80.13,0,1,1,138,0A6.53,6.53,0,0,1,213.14,229.59Zm-122.95-13H209.3a67.1,67.1,0,1,0-119.11,0Z" transform="translate(-3.08 -39)" style="fill:#a4a4c4"/><path d="M265,229.59H34.53a6.52,6.52,0,0,1,0-13H265a6.52,6.52,0,1,1,0,13Z" transform="translate(-3.08 -39)" style="fill:#a4a4c4"/><path d="M233.11,261.44H66.38a6.52,6.52,0,0,1,0-13H233.11a6.52,6.52,0,0,1,0,13Z" transform="translate(-3.08 -39)" style="fill:#a4a4c4"/></svg>