<?xml version="1.0" encoding="utf-8"?>
<!-- Generator: Adobe Illustrator 26.0.1, SVG Export Plug-In . SVG Version: 6.00 Build 0)  -->
<svg version="1.1"
	 id="svg1" inkscape:export-filename="#3 Sunset Clipart SVG.jpg" inkscape:export-xdpi="96" inkscape:export-ydpi="96" inkscape:version="1.3.2 (091e20e, 2023-11-25, custom)" sodipodi:docname="#4 Sunset Vector SVG.zip" xmlns:inkscape="http://www.inkscape.org/namespaces/inkscape" xmlns:sodipodi="http://sodipodi.sourceforge.net/DTD/sodipodi-0.dtd" xmlns:svg="http://www.w3.org/2000/svg"
	 xmlns="http://www.w3.org/2000/svg" xmlns:xlink="http://www.w3.org/1999/xlink" x="0px" y="0px" viewBox="0 0 1024 1024"
	 style="enable-background:new 0 0 1024 1024;" xml:space="preserve">
<style type="text/css">
	.st0{fill:#A4A4C4;}
</style>
<sodipodi:namedview  bordercolor="#000000" borderopacity="0.25" id="namedview1" inkscape:current-layer="g1" inkscape:cx="477.9764" inkscape:cy="615.96363" inkscape:deskcolor="#d1d1d1" inkscape:pagecheckerboard="0" inkscape:pageopacity="0.0" inkscape:showpageshadow="2" inkscape:window-height="705" inkscape:window-maximized="1" inkscape:window-width="1366" inkscape:window-x="-8" inkscape:window-y="-8" inkscape:zoom="0.35148179" pagecolor="#ffffff" showgrid="false">
	</sodipodi:namedview>
<g id="g1" inkscape:groupmode="layer" inkscape:label="Image">
	<path id="path181" class="st0" d="M464.3,978.6c-6.7-0.7-21.3-2.7-32.5-4.6s-28.6-5.4-38.7-8c-10.1-2.5-25.9-7.1-35.2-10.2
		c-9.3-3.1-25.4-9.2-35.8-13.6c-10.4-4.4-26-11.6-34.5-16.1c-8.6-4.5-21-11.4-27.5-15.3c-6.6-3.9-17.2-10.7-23.7-15
		s-16.9-11.8-23.3-16.8c-6.3-4.9-17.6-14.6-25.1-21.4c-7.5-6.9-19.7-19.3-27.2-27.7c-7.5-8.4-17.8-20.3-22.8-26.6
		c-5.1-6.3-14.9-19.8-21.8-30.1c-6.9-10.3-16.3-25.3-20.7-33.2c-4.5-8-11.5-22-15.7-31c-4.1-9.1-7.5-16.9-7.5-17.3
		c0-0.4,2.3-0.4,5.1,0c2.8,0.5,16.4,2.9,30.1,5.5s41.2,8.2,61,12.6s42.9,9.7,51.5,11.8c8.6,2.1,15.8,3.6,16.2,3.3s-0.5-6.4-1.9-13.5
		c-1.4-7.2-4.3-18.1-6.5-24.4c-2.2-6.3-5.8-15.1-7.9-19.8c-2.1-4.6-7-13.5-10.8-19.8c-3.8-6.3-7.2-11.2-7.5-10.9
		c-0.3,0.3-1.4,4.4-2.4,9.1l-1.8,8.6l-0.9-8.7c-0.5-4.8-1-10.7-1.2-13.1c-0.3-4.4-0.4-4.4-4.9,3.7c-3.2,5.8-4.8,10.7-5.5,17.1
		c-0.6,6.1-1.5,8.9-2.6,8.6c-1.2-0.2-1.4,0.8-0.9,3.3c0.5,2,1.1,4.4,1.3,5.4c0.3,0.9,0.2,1.7-0.1,1.7c-0.3,0-1.8-2.3-3.2-5.1
		c-1.4-2.8-3.2-8.4-4-12.5c-0.9-4.7-0.9-9.4-0.2-12.7c0.7-2.9,1.2-5.8,1.2-6.6c0-0.7-1.2,0.2-2.8,2c-1.5,1.8-3.9,5.1-5.4,7.4
		c-2.2,3.4-2.6,3.6-2.7,1.3c-0.1-2-0.5-1.6-1.6,1.3c-1.3,3.4-1.6,3.6-2.4,1.4c-0.7-2-1.7-0.6-4.6,6.1l-3.7,8.6l0.6-9
		c0.4-6.2,1.7-11.3,4.2-16.3c2-4,6.1-9.4,9.2-12c3.1-2.6,5.2-4.7,4.7-4.7c-0.5,0-5,1.5-10,3.4c-8.5,3.1-8.9,3.2-6.6,0.7
		c1.4-1.5,1.8-2.7,1-2.7c-0.8,0-2.4,0.9-3.4,1.9c-1.1,1.1-2.4,1.5-2.9,1c-0.5-0.5-1.8,0.2-2.9,1.7c-1.1,1.5-1.9,1.9-1.9,0.9
		c0-1.1-0.9-1.4-2.4-0.8c-1.3,0.5-0.3-1.3,2.4-4c2.6-2.7,7.8-6.4,11.5-8.3s8.6-3.9,10.8-4.4c3-0.7,1.3-1-6.1-1.2l-10.2-0.2l3.2-2.6
		l3.2-2.6l-3.9,0c-2.1,0-6.2,0.6-8.9,1.2c-2.8,0.6-4.8,0.7-4.4,0.1c0.4-0.6,3.4-2.3,6.7-3.9c4-1.9,8.8-2.8,14.1-2.8
		c4.4,0,10.6,0.9,13.7,2c3.2,1.1,6.1,2,6.5,2c0.4,0-0.3-1.1-1.5-2.4c-1.2-1.3-3.4-5.1-4.9-8.4c-1.5-3.3-2.8-7.2-2.8-8.6
		c0-2.6,0-2.6,2,0c1.9,2.4,2,2.1,1.2-3.9c-0.6-4.3-0.4-6.3,0.5-5.7c0.7,0.5,2.1,2.6,3.1,4.9c0.9,2.2,2.1,4,2.6,4
		c0.5,0,0.7-2.3,0.5-5c-0.3-3.6,0.6-1.9,3.2,6c2,6.1,4.1,11,4.6,11c0.5,0,1.3-2.7,1.8-6c0.5-3.3,2-8.3,3.5-11.2s4.6-6.8,7-8.7
		c2.4-2,6.2-4.5,8.5-5.7l4.2-2.1l-3.5,3.8c-1.9,2.1-4.3,5-5.4,6.4c-1.9,2.5-1.9,2.5,2,0l4-2.6l-5,7.3c-2.7,4-4.7,7.5-4.3,7.9
		c0.3,0.3,1.5-0.2,2.7-1.1c1.1-0.9,2.1-1.1,2.1-0.5c0,0.7-0.8,2-1.7,3c-1.4,1.4-1.4,1.6,0,0.9c0.9-0.5,1.7-0.6,1.7-0.2
		s-0.9,2.8-1.9,5.3l-1.9,4.5l6.3-4c3.5-2.2,9.5-4.9,13.3-6c3.9-1.1,10.1-1.9,13.9-1.7c3.8,0.2,6.9,0.7,6.9,1.2c0,0.5-1,1.8-2.3,2.8
		c-2,1.6-2.1,1.6-1.1-0.1c0.9-1.4,0.6-1.7-1.2-1c-1.3,0.5-3.7,0.9-5.3,1c-2.5,0.1-2.3,0.3,1.1,1.9c2.7,1.2,3.2,1.9,1.7,1.9
		c-1.3,0.1-2.4,0.6-2.4,1.1c0,0.6-3.8,2.5-8.5,4.3l-8.5,3.2l11.5,1.9c6.3,1,14.2,3.3,17.6,5c3.4,1.7,8.6,5.6,11.5,8.7l5.4,5.6
		l-7.9-4.9c-4.3-2.7-8.2-4.7-8.5-4.3c-0.3,0.3,0.3,1.4,1.5,2.3c1.1,0.9,2.1,2.2,2.1,2.9c0,0.6-1.1,1.2-2.6,1.2s-5.7-1-9.6-2.2
		c-5.6-1.8-7.3-1.9-8.1-0.5c-0.7,1.1-2.3,1.4-4.3,0.9c-2.5-0.7-2.4-0.4,0.8,1.4c2.2,1.2,5.4,3.5,7.1,5c1.7,1.5,4.8,5.5,7,8.9
		c2.2,3.4,4.4,7.9,4.9,10.1c0.9,3.8,0.8,3.8-2.8-1.3c-2-2.9-4.1-5.6-4.5-6c-0.4-0.4-0.3,0.4,0.2,1.7c0.5,1.3,1.3,3.4,1.8,4.7
		c0.7,1.8-0.1,1.6-3.7-1.1c-2.6-1.9-5.6-3.9-6.7-4.6c-1.5-0.8-1.4-0.4,0.3,1.5c1.3,1.5,2.4,3.2,2.4,3.8s-1.7-0.4-3.7-2.2
		c-2-1.9-4.8-3.8-6.2-4.2c-1.5-0.5-2.1-0.3-1.6,0.5c0.5,0.7,0.4,1.3,0,1.3c-0.5,0-2.8-1.4-5.2-3.1c-2.4-1.7-5.4-3.5-6.7-4
		c-1.3-0.5-2.4-0.5-2.4-0.1c0,0.4,4.8,8.7,10.7,18.3c5.9,9.7,12.7,21.5,15.1,26.2c2.4,4.7,6.5,14.1,9.2,20.7
		c2.6,6.7,6.4,17.5,8.5,24.1c3.7,12,3.7,12,8.7,12.8c4.4,0.7,5.2,0.4,6.2-2.3c0.7-1.7,3.4-8.4,6.1-14.8c2.7-6.5,9.1-20.4,14.3-31
		c5.1-10.6,9.4-19.8,9.4-20.4c0-0.6-0.5-1.1-1-1c-0.6,0.1-5,0-9.8-0.2l-8.8-0.3l10.8-1.1c7.9-0.8,11.3-1.7,12.6-3.5
		c1-1.3,7.6-12.6,14.7-25.1c7.1-12.5,15-26.8,17.5-31.8c2.5-5,6.4-14.6,8.7-21.3c2.2-6.7,3.8-12.4,3.6-12.7
		c-0.2-0.2-2.7,2.6-5.6,6.3c-2.8,3.7-5.6,7-6.2,7.3s0.1-2.5,1.5-6.4l2.6-7l-4.2,4.7c-2.3,2.6-5.8,7-7.8,9.9c-2,2.8-3.8,4.5-4.1,3.6
		c-0.3-0.8,0.1-3.4,0.9-5.7c1.2-3.4,1.2-3.9-0.4-2.6c-1,0.8-3.2,5.2-4.8,9.6s-3.3,7.8-3.6,7.5c-0.3-0.3,0-3.5,0.8-7
		c0.8-3.5,1.3-6.5,1.1-6.8c-0.2-0.2-3.1,4.7-6.4,11s-6.3,10.8-6.5,10c-0.3-0.8,0.8-4.3,2.4-7.8l2.8-6.4l-3.3,4
		c-1.8,2.2-5.6,8.2-8.3,13.4c-3.7,6.9-4.8,8.2-4.1,5c0.5-2.4,1.2-6.3,1.5-8.7c0.5-3-1-0.9-5,7c-3.1,6.3-6.5,14.1-7.5,17.4l-1.8,6
		l0.7-9.6c0.4-5.3,2.3-14.6,4.2-20.7s5.2-14.4,7.3-18.5c2.1-4.1,6.7-11,10.3-15.4c6-7.3,6.2-7.7,2-4.6c-2.5,1.8-5.9,4.2-7.5,5.3
		c-2.8,1.9-2.8,1.9-0.9-0.6c1.1-1.4-0.6-0.6-3.8,1.8c-3.2,2.5-6.2,4.1-6.6,3.7c-0.4-0.4-2,0.8-3.6,2.7c-2.6,3.2-2.8,3.3-3.7,1
		c-0.9-2.3-1.1-2.2-2.3,0.9c-0.7,1.9-2.3,4.2-3.5,5.2c-1.6,1.3-2.2,1.3-2.2,0.2c0-0.9,0.6-2.9,1.4-4.5c0.8-1.6-0.3-0.8-2.4,1.7
		c-2.1,2.6-5.3,6.1-7.1,7.8c-1.8,1.7-4.4,4.7-5.7,6.7s-2.4,2.8-2.4,1.8c0-1,2.2-5.8,4.9-10.7l4.9-8.9l-6,5.7
		c-3.3,3.1-7.5,8.1-9.3,11c-1.8,2.9-3.7,5.3-4.3,5.3c-0.5,0-0.4-1.4,0.3-3.2c0.7-1.8,2-4.6,3-6.3c1-1.7,5.3-8.1,9.7-14.2
		c4.5-6.3,11.2-13.7,15.4-17c4.1-3.2,13.1-8.5,19.9-11.8c6.8-3.3,13.9-6.6,15.8-7.4c2.9-1.2,3-1.4,0.7-1.5c-1.5,0-6.7,0.8-11.5,1.9
		c-4.8,1.1-9.4,1.9-10.2,1.9c-0.7,0,0.5-1,2.7-2.2c2.2-1.2,3.3-2.4,2.4-2.7s-2.9,0.1-4.4,1c-1.5,0.8-3.4,1.1-4.2,0.7
		c-0.7-0.5-0.9-1.5-0.4-2.4c0.5-0.9-0.6-0.3-2.3,1.2c-1.8,1.5-7.2,4.2-12.1,5.9c-4.8,1.7-9.7,3.8-10.8,4.6c-1.5,1.1-1.7,1-0.9-0.2
		c0.6-0.9,3.5-2.9,6.6-4.3c3.1-1.5,6.4-2.7,7.4-2.7c1,0,1.8-0.6,1.8-1.3s-0.2-1.3-0.4-1.3c-0.2,0-4.8,1.5-10.2,3.3
		c-5.4,1.8-11.7,4.6-14.1,6.1c-2.7,1.8-1.6,0.3,3.1-4.1c4.1-3.8,6.5-6.4,5.4-5.9c-1.1,0.6-5.1,3.2-8.8,5.7
		c-3.7,2.6-8.3,5.9-10.1,7.4l-3.3,2.8l3-4.3c1.6-2.3,6.7-7.5,11.1-11.5s12.5-9.5,17.9-12.1c6.4-3.2,13.3-5.4,20.2-6.4
		c8.1-1.2,12.5-1.2,19.5,0.1c4.9,0.9,9.3,1.3,9.7,0.9s-3-2.3-7.6-4.3c-4.6-2-8.4-4.1-8.4-4.9c0-0.7,2.6-1,6.1-0.6
		c3.3,0.4,5.7,0.1,5.3-0.5c-0.4-0.6-3.7-1.2-7.3-1.2c-5.6,0-7.6-0.8-13.6-5.4c-3.8-3-9.8-6.9-13.3-8.6c-3.5-1.7-9.2-3.9-12.8-4.7
		c-3.5-0.9-10.5-1.4-15.6-1.1l-9.2,0.5l3.3-9.4c2.7-7.6,3.3-12.1,3.4-24.1c0.1-11.6-0.5-16.7-2.9-24.1c-1.6-5.1-6.1-14-9.8-19.6
		c-3.8-5.6-10.3-13.4-14.6-17.1c-4.3-3.8-12.6-9.2-18.6-12.1c-6-2.9-14.5-5.9-19-6.7c-4.5-0.8-12.8-1.2-18.4-0.8l-10.3,0.7l1.3-6.9
		c0.7-3.8,0.9-11.1,0.5-16.3c-0.4-5.2-2.3-13.8-4.1-19c-1.8-5.3-5-12.4-7-15.9c-2.1-3.5-8.1-10.6-13.4-15.8
		c-5.7-5.6-13.5-11.6-19.1-14.6c-5.2-2.8-9.7-5.3-9.9-5.4c-0.2-0.2,2.7-5.3,6.6-11.5c3.9-6.1,12.7-19,19.6-28.5
		c6.9-9.6,16.3-21.9,21-27.4c4.7-5.5,14-16,20.8-23.3c6.8-7.3,18.7-19,26.5-25.9c7.8-7,18.2-15.8,23-19.6c4.9-3.8,14-10.5,20.3-15
		c6.3-4.4,18.7-12.4,27.6-17.7c8.8-5.3,24.5-13.8,34.8-18.9c10.3-5.1,25.3-11.9,33.4-15.2c8.1-3.2,22.9-8.6,33-11.9
		c10.1-3.3,26-7.9,35.2-10.1c9.3-2.2,24.2-5.3,33.1-6.7c8.9-1.5,21.3-3.3,27.5-4c6.2-0.8,21.1-1.8,33.2-2.2
		c12.9-0.5,30-0.2,41.5,0.7c10.8,0.8,26,2.5,33.9,3.6c7.8,1.1,20.3,3.3,27.8,4.8c7.5,1.5,22,5.2,32.3,8.1c10.3,2.9,26.2,8,35.2,11.3
		s26.3,10.7,38.4,16.5c12.1,5.8,27.9,13.9,35.2,18.1c7.3,4.2,19.4,11.7,26.8,16.6s20.6,14.3,29.1,20.8c8.6,6.5,26.6,22.7,40,35.9
		c13.4,13.2,29.6,30.6,35.9,38.5c6.3,8,16.3,21.2,22.1,29.4c5.8,8.2,14.8,21.9,19.8,30.3c5,8.5,9.8,16.7,10.7,18.3
		c1.4,2.7,0.9,3.2-6.9,6.8c-4.6,2.2-11.6,6.4-15.5,9.4c-3.9,3-9.7,9.3-13,13.9c-3.3,4.6-7.7,12.9-9.8,18.4
		c-3.1,8.4-3.7,12.1-3.7,22.7c0,7.9,0.8,15.2,2.2,19.4c1.2,3.7,2.2,7,2.2,7.4c0,0.4-5.1,0.5-11.3,0.2c-7.4-0.3-14.3,0.3-20,1.8
		c-4.8,1.2-11.7,3.8-15.4,5.8c-3.7,2-10.5,7.2-15.1,11.6c-4.9,4.7-10,11.4-12.5,16.2c-2.3,4.5-5.2,13.2-6.5,19.3
		c-1.5,7.4-2,14.2-1.5,20.1c0.4,4.9,2.5,14.1,4.6,20.3l3.9,11.4l-5.2,0.8c-2.9,0.5-8.2,2.3-11.9,4.2c-3.7,1.8-9.1,5.7-12,8.6
		c-2.9,2.9-6.6,7.7-8.1,10.6s-3.3,7.6-3.8,10.4l-1,5l-12.1-0.3c-6.7-0.2-15.5,0.3-19.5,1.1c-4.1,0.8-10,2.7-13.2,4.2
		c-3.2,1.5-8.5,5.5-11.9,8.9c-3.4,3.4-7.3,8.7-8.9,11.8c-1.5,3.1-3.2,8.2-3.8,11.4l-1,5.7l-12.2-0.2c-7-0.1-15.2,0.6-19.3,1.7
		c-3.9,1.1-9.3,3.1-11.9,4.7c-2.6,1.5-4.7,2.3-4.7,1.7c0-0.6,1.3-2.2,2.9-3.6c1.6-1.4,5.7-6.2,9.1-10.6c3.4-4.4,7.7-10.1,9.5-12.7
		c1.8-2.6,6.1-10.1,9.6-16.7c3.5-6.6,8-16.5,9.9-22.1s4.8-15.1,6.2-21.4c1.4-6.3,3.4-17.7,4.3-25.4c0.9-8.1,1.3-21.1,0.8-30.7
		c-0.4-9.2-1.8-21.5-3-27.4c-1.2-5.9-4.3-17-6.9-24.7c-2.6-7.7-8-20.2-12-27.8c-4-7.6-10.8-18.6-15-24.4
		c-4.3-5.8-14.2-16.8-22.1-24.4c-7.9-7.6-19.5-17.1-25.9-21.3c-6.3-4.1-16.4-9.9-22.4-12.8c-6-2.9-16.3-7.2-23-9.4
		c-6.7-2.2-17.1-5.1-23-6.3c-6-1.2-19.4-2.5-29.8-2.9c-13.3-0.5-23,0-32.5,1.4c-7.5,1.1-19,3.6-25.7,5.6c-6.7,1.9-17.8,5.9-24.7,8.9
		c-6.9,3-17.8,8.9-24.4,13.1c-6.5,4.3-17.1,12.2-23.4,17.7c-6.3,5.5-15.2,14.3-19.6,19.6c-4.5,5.3-11.5,15-15.7,21.5
		c-4.2,6.5-10.2,17.6-13.3,24.7c-3.1,7-7.2,18.6-9,25.6c-1.8,7-4,19.4-4.9,27.4c-1.3,11.4-1.3,17.8,0,29c0.9,7.9,2.9,18.9,4.4,24.4
		s4.3,12.7,6.2,16c1.8,3.3,4.4,7.4,5.7,9c2.3,2.9,2.3,2.7,2.4-6.7c0.1-6,0.9-11.4,2.3-14.3l2.2-4.7l-0.7,6.7l-0.7,6.7l3.4-9.4
		c1.8-5.1,4.9-12.1,6.9-15.5s6-9,9-12.3c3-3.4,7.4-7.5,9.7-9.1c3.7-2.6,3.4-2-2.1,4.6c-3.4,4.2-7,8.9-7.9,10.6c-0.9,1.7,1.7,0,6-4
		c4.2-3.9,8-7,8.5-7c0.5,0-0.1,1.4-1.3,3c-1.2,1.7-4.1,6.6-6.4,11c-2.3,4.4-6,10.6-8.3,13.8l-4,5.8l7-5l7-5l-6.3,11.9l-6.3,11.9
		l6.2-6.7l6.2-6.7l-3.5,7.4c-1.9,4-4.8,9.8-6.3,12.7c-2.7,5-2.3,4.8,6.7-4c5.2-5.1,13-11.4,17.3-14c4.3-2.5,11-5.7,14.8-6.9
		c3.9-1.3,11-3,15.7-3.7c4.8-0.8,12.2-1.4,16.5-1.4c4.3,0,7.8,0.5,7.8,1.2c0,0.6-4.3,1.6-9.5,2.1c-5.2,0.5-9.5,1.5-9.5,2.2
		s2.6,1.3,5.8,1.4c4.9,0.1,3.6,0.7-8.5,3.7l-14.2,3.5l6.8,0.7l6.8,0.7l-11.5,4c-9.5,3.3-10.8,4.1-7.5,4.4c2.2,0.2,5,0.7,6.1,1.2
		c1.4,0.5,0.5,1.3-2.7,2.5c-2.6,1-7.2,1.9-10.2,2l-5.4,0.3l4.7,0.8l4.7,0.8l-8.8,6.5c-4.8,3.6-7.5,6.1-6,5.5c1.5-0.6,5.1-1.9,8.1-3
		c3-1.1,9.9-2.8,15.4-3.8c5.5-1,14.6-1.9,20.4-1.9s14,0.9,18.4,2s10.9,3.6,14.5,5.5c3.6,1.9,9.7,6.5,13.6,10.1
		c3.9,3.7,5.9,5.8,4.4,4.9s-4.5-3.2-6.6-4.9c-2.1-1.7-7.8-4.9-12.5-7.1c-4.7-2.2-9.1-4-9.6-4s3,2.7,8,6c5,3.3,9.4,6.6,9.9,7.4
		c0.5,0.8-2.7-0.3-7-2.5c-4.3-2.1-10.3-4.3-13.3-4.7l-5.4-0.8l7.5,4c4.1,2.2,7.1,4,6.6,4c-0.5,0-3.4-0.8-6.5-1.9
		c-3.1-1.1-5.3-1.4-4.8-0.7s0.3,1.3-0.3,1.3c-0.6,0-3.1-1.2-5.5-2.7c-2.4-1.5-4.8-2.7-5.3-2.7c-0.5,0,0.6,1.5,2.3,3.3
		c1.7,1.8,2.5,3.3,1.6,3.3s-4.8-1.2-8.7-2.7c-3.9-1.5-7.4-2.7-7.8-2.7c-0.3,0,1.5,1.8,4.1,4c2.6,2.2,4.2,4,3.6,4
		c-0.6,0-4.8-1.8-9.5-4l-8.4-4.1l4.4,3.8c2.4,2.1,4.4,4.3,4.4,4.8c0,0.6-5.3,0.7-11.9,0.2l-11.9-0.8l12,3.4
		c6.6,1.8,16.4,5.8,21.7,8.8s12.3,7.9,15.5,10.9c3.3,3,8,8.2,10.6,11.5c2.6,3.3,6.5,9.7,8.8,14.1c2.3,4.4,4.9,10.6,5.9,13.8
		s1.6,5.8,1.3,5.8c-0.3,0-2.9-4.7-6-10.4c-3-5.7-7.7-12.8-10.3-15.7s-3.9-3.8-2.8-2c1.1,1.8,3.6,7,5.6,11.4l3.5,8l-7.2-8
		c-3.9-4.4-10.1-11-13.8-14.7c-3.7-3.7-5.8-5.4-4.8-3.8c1,1.6,4,5.5,6.6,8.6l4.7,5.7l-4.7-3.3c-2.6-1.8-7-5.1-9.7-7.3
		c-2.7-2.2-7.6-6.1-10.8-8.7c-5.8-4.6-5.9-4.6-3.4-0.9c1.4,2.1,2.2,4.1,1.8,4.4c-0.4,0.3-3.3-1.2-6.5-3.4c-3.2-2.2-7.4-4.4-9.3-4.9
		c-3.1-0.9-2.9-0.4,2.1,4.9c3,3.2,7.4,9.2,9.7,13.2c2.3,4,5.4,11.3,6.9,16c1.5,4.8,3.1,12.6,3.6,17.4c0.5,4.8,0.3,12.4-0.4,16.8
		c-0.7,4.5-2.1,10.8-3.1,14l-1.8,5.9l-0.3-6.7c-0.2-3.7-0.8-9.4-1.3-12.7l-1-6l-0.8,7.4l-0.8,7.4l-0.3-8.7
		c-0.2-4.8-0.9-9.9-1.6-11.4c-1-2.1-1.1-1.5-0.7,2.3c0.3,2.7,0.1,5.3-0.5,5.7c-0.6,0.4-2.1-2.2-3.4-5.7c-1.3-3.5-3.9-9.8-5.9-14.1
		c-2-4.3-4-8-4.5-8.3c-0.5-0.3,0.2,3.4,1.6,8.1c1.3,4.8,2.2,8.7,1.9,8.7s-3.7-5.8-7.7-12.9l-7.2-12.9l-0.8,9.9
		c-0.4,5.4-0.9,8.9-1,7.7c-0.1-1.2-1.9-5.1-3.9-8.7c-2-3.6-4.7-8-6.1-9.7c-1.4-1.8-2.4-2.7-2.4-2c0,0.7,0.9,2.7,2,4.5
		c1.1,1.8,2,3.9,2,4.7c0,0.7-2.7-2.7-6.1-7.7c-3.4-5-6.4-9-6.7-9c-0.3,0,0.1,1.9,0.9,4.1c0.9,2.4,1.2,10,0.9,18.4
		c-0.3,7.9-1.3,15.5-2.2,16.9c-1.3,2.3-1.6,1.7-1.8-4l-0.2-6.7l-1.1,6.3c-0.6,3.5-2.1,9.2-3.5,12.7c-1.3,3.5-2.8,6.8-3.3,7.4
		c-0.5,0.6-1.3-6.4-1.8-15.6c-0.5-9.2-1.3-18.6-1.8-20.9c-0.8-4-1.2-3.3-6.9,9.6c-3.3,7.6-9.6,22.4-13.9,32.9l-8,19.1h22.4
		c21.9,0,22.5-0.1,26.4-3.3c2.3-1.9,5.7-3.3,7.9-3.3c2.4,0,5.7,1.5,8.5,4c4,3.5,4.8,3.7,6.3,2c1-1.2,3.9-2,7.2-2
		c3.1,0,6.5,0.9,7.9,2.2c2.2,2,2.6,2,4.7-0.1c1.8-1.8,3.7-2.1,8.5-1.5c3.4,0.4,18.7,1.7,34,2.8c15.3,1.1,32,2.5,37.3,3.2
		c7.3,0.9-0.5,1.3-33.2,1.6c-23.5,0.2-64.7,0.3-91.6,0l-48.9-0.4l-6.3,17.9c-3.5,9.8-8.7,26.5-11.7,37.1c-3,10.6-5.4,20-5.4,20.9
		c0,1,3.9,2.6,9.1,3.8c5,1.2,22.9,5.1,39.6,8.8c16.8,3.6,44.5,10,61.6,14.1c17.1,4.1,46.4,11,65,15.4c18.6,4.3,40.9,9.1,49.4,10.6
		c8.6,1.5,18.9,3.3,23,3.9l7.5,1.2l-6.2,0.2c-3.4,0.1-24.1,1.1-46.1,2.1c-21.9,1.1-50.6,2.6-63.6,3.4c-13,0.8-38.3,2.6-56.2,4.1
		c-17.9,1.5-43.2,4.2-56.2,6c-13,1.8-30.6,4.6-39,6.2c-8.4,1.6-15.1,3-14.9,3.2c0.2,0.2,9.2,1.6,20,3.1c10.8,1.5,65,7.8,120.5,14.1
		c55.5,6.3,118.3,13.6,139.5,16.2c21.2,2.6,43.5,5.3,49.5,6c6,0.7,27.5,3.3,47.9,5.9c20.4,2.6,37.3,4.9,37.6,5.2s-19.1,0.9-43.2,1.4
		c-24,0.5-65,1.5-91.1,2.3c-26,0.8-48.6,1.9-50,2.4c-1.8,0.7,0.4,1.3,6.7,1.8c5.2,0.4,25.2,2.4,44.6,4.3c19.4,1.9,53.5,5.3,75.9,7.4
		c22.4,2.2,52.1,5.2,66,6.7l25.4,2.8l11.9-2.9c7.8-1.9,18.6-3.3,31.5-3.9c10.8-0.5,19.8-0.8,20.1-0.6c0.3,0.2-5.8,4.5-13.5,9.6
		c-7.7,5.1-20.4,12.7-28.1,17c-7.8,4.3-21.5,11.2-30.5,15.4c-9,4.2-25.5,11-36.8,15.1c-11.2,4.1-28,9.5-37.3,12.1s-24.5,6.2-33.8,8
		s-24.2,4.4-33.2,5.6c-11.1,1.5-28.1,2.4-53.5,2.6C493.3,979.7,471,979.3,464.3,978.6L464.3,978.6z M405.4,558.3
		c0-0.3-1.4-1.3-3-2.1c-2.9-1.4-2.9-1.4-0.4,0.6c1.4,1.1,2.8,2.1,3,2.1S405.4,558.6,405.4,558.3z M776.6,449.1
		c-1.9-0.7-5.8-1.4-8.7-1.4c-2.9,0-6.2-0.9-7.2-1.9c-1-1-3.8-1.8-6.1-1.8s-5.4,1-6.8,2.3s-5.7,2.7-9.6,3.2
		c-3.9,0.5,3.6,0.9,17.4,0.9C773.1,450.4,779,450.1,776.6,449.1L776.6,449.1z M259,320.1c0.3-0.3-4.3-0.6-10.3-0.6
		c-10.1,0-11.2-0.3-15.5-4c-2.5-2.2-5.8-4-7.4-4c-1.5,0-4,0.9-5.4,1.9c-1.4,1.1-3.8,2-5.3,2c-1.5,0-5.1,0.9-8.1,2
		c-3,1.1-9.1,2.1-13.5,2.2l-8.1,0.3l10.2,0.9c5.6,0.5,22,0.6,36.6,0.3C246.5,320.9,258.7,320.5,259,320.1z M843.6,319.5
		c-3.7-0.6-9.9-1.1-13.7-1.2c-5.1-0.1-7.5-0.8-9.4-2.9c-1.4-1.5-3.8-2.6-5.3-2.4c-1.6,0.2-4.4-1.2-6.4-3.3c-2.6-2.6-5-3.6-8.5-3.6
		c-3.6,0-6.1,1.2-10,4.7c-4.3,3.9-6,4.5-9.3,3.9c-2.4-0.5-5.4-0.1-7.3,1c-1.8,1-9,2.5-16.1,3.3c-11.1,1.3-5.5,1.5,40,1.5
		C827.6,320.6,847.5,320.1,843.6,319.5L843.6,319.5z M332.4,262.4c-4.4-0.3-8.8-1.5-11-3.1c-2-1.4-5.7-2.6-8.2-2.6
		c-2.5,0-5.6,0.8-6.9,1.8c-2.1,1.6-3,1.2-7.6-3.4c-3.9-3.8-6.4-5.2-9.5-5.2c-2.7,0-5.5,1.2-7.5,3.2c-2.7,2.6-4.2,3.1-9.1,2.6
		c-4.5-0.5-8,0.3-15.3,3.4l-9.5,4.1l46.1-0.2C319,263,336.4,262.7,332.4,262.4L332.4,262.4z M777.3,884.9c-3-0.7-8.8-1.8-12.9-2.5
		c-6.2-1-5.3-1.1,5.4-0.5c7.1,0.4,15.1,1,17.9,1.4c2.8,0.4,4.7,1.3,4.3,1.9c-0.4,0.6-2.7,1.1-5.1,1
		C784.6,886.2,780.2,885.6,777.3,884.9z M786.1,864.3c-15.3-1-48.2-2.7-73.2-3.8c-25-1.1-48.7-2.1-52.8-2.2
		c-4.1-0.1-6.8-0.3-6.1-0.6c0.7-0.3,16.3-2.6,34.5-5.2c18.3-2.6,55.4-7.4,82.6-10.7c27.2-3.3,54.9-6.4,61.5-7
		c7.3-0.5,11.1-1.3,9.5-1.9c-1.4-0.5-22.7-1.6-47.3-2.5c-24.6-0.8-74.9-2.1-111.8-2.8s-82.9-1.8-102.3-2.3c-32.9-0.9-34.2-1-20.3-2
		c8.2-0.6,27.1-2,42-3.2s37.8-3.3,50.8-4.7c13-1.4,43.2-4.3,67.1-6.6c23.8-2.2,53.1-4.6,65-5.3c11.9-0.7,34.2-1.8,49.4-2.4l27.8-1.1
		l-32.5-0.8c-17.9-0.5-50.8-0.9-73.2-1c-22.4-0.1-61.7-0.8-87.4-1.6c-25.7-0.8-49.2-1.9-52.2-2.4c-5.2-0.9-4.9-1.1,6.8-3.2
		c6.7-1.3,18-3,25.1-3.9l12.9-1.7l-15.3-1.2c-8.4-0.6-15.1-1.4-14.8-1.7c0.3-0.3,12.7-1.4,27.5-2.5c14.8-1.1,41.6-3.2,59.5-4.6
		c17.9-1.4,39.2-3.1,47.4-3.6c14.2-1,13.1-1.1-24.4-2.6c-21.6-0.9-63.4-2.3-92.8-3.1s-65.7-2.1-80.6-2.8c-14.9-0.7-31-1.3-35.8-1.3
		c-4.9,0-8.2-0.5-7.5-1.2c0.7-0.6,18.1-2.5,38.5-4.2c20.5-1.7,40.6-3.4,44.7-3.9c5.4-0.6,0.1-1.1-19-1.9
		c-14.5-0.5-49.9-1.6-78.6-2.3c-28.7-0.7-60.7-1.7-71.1-2.3l-19-1l11.5-0.9c6.3-0.5,35.3-1.6,64.3-2.4c29.1-0.8,77.5-2.1,107.7-2.9
		c30.2-0.8,57.3-1.9,60.3-2.4c3-0.5-26.6-1.4-65.7-2c-39.1-0.6-94-1.6-121.9-2.2c-27.9-0.7-71-1.2-95.6-1.3
		c-24.7,0-52.2-0.4-61.3-0.9c-9.1-0.5-16.5-1.3-16.5-1.9s9.6-1.3,21.3-1.8c11.7-0.4,100-1.2,196.1-1.6l174.7-0.8l19.6-5.2
		c10.8-2.9,26.7-6.7,35.2-8.5c8.6-1.8,24.1-4.8,34.5-6.7c10.4-1.8,28.4-4.6,40-6.1c11.5-1.5,31.1-3.6,43.3-4.8
		c12.3-1.1,34.4-2.4,49.1-2.9l26.8-0.9l-5.9,12.6c-3.3,6.9-9,18.7-12.8,26.1c-3.8,7.4-10.7,19.8-15.3,27.4
		c-4.6,7.6-12.4,19.6-17.2,26.6c-4.9,7-15,20.2-22.5,29.4s-22.3,25.3-33,35.8c-11.4,11.2-20.3,19-21.7,18.9
		C814.9,866.1,801.3,865.2,786.1,864.3L786.1,864.3z M597.2,632.6c0.7-0.7,14.4-1.9,30.4-2.9c29.1-1.6,29.1-1.7,33.6-5.5
		c3.5-3,5.8-3.8,10.6-3.8c3.4,0,7.8,0.9,9.9,1.9c2.1,1.1,4.6,2.9,5.6,4.1c1.6,1.9,2.1,1.3,4.1-5c1.2-4,3.7-9.2,5.5-11.6
		c1.8-2.4,6.3-5.9,10-7.8c4.2-2.1,10-3.6,15.2-4.1c7.3-0.6,9.5-0.2,15.9,2.9c4.1,2,8.7,5.3,10.2,7.4c2.6,3.6,3.1,3.8,10.8,3.1
		c7.8-0.7,8.2-0.6,12.9,4c2.6,2.6,5.2,6.5,5.6,8.7l0.8,3.9l19.2,1.6c10.5,0.9,21.3,2.1,23.9,2.7c2.6,0.6-46.6,1.2-110.3,1.2
		C642.4,633.7,596.4,633.3,597.2,632.6L597.2,632.6z M747.4,544.3l-10.8-0.8l18.3-1c10.1-0.6,25.3-1.4,33.9-1.8l15.6-0.8l2.9-4.4
		c1.8-2.8,5.2-5.2,9-6.7c4.1-1.5,7.7-2,10.9-1.4c2.6,0.5,6.6,2.4,8.9,4.3l4.1,3.4v-4.8c0-2.7,0.9-7.1,2.1-9.8
		c1.2-2.7,3.7-6.7,5.8-8.8c2-2.1,6-5,8.8-6.4c2.8-1.4,8.2-3,11.8-3.4c3.8-0.4,9.3-0.1,12.7,0.9c3.3,0.9,8.4,3.7,11.3,6.1
		c2.9,2.4,6.7,7.4,8.4,11l3.1,6.5l3.2-3.2c1.8-1.7,5.3-4,7.9-5.1s6.9-1.9,9.5-1.9s7.2,1.2,10.1,2.6c2.9,1.5,6.5,4.4,8,6.5
		c1.5,2.1,3.4,5.4,4.1,7.3c1,2.5,2.6,3.6,5.8,4.1c2.5,0.4,10.6,1.3,18,2c7.5,0.8,22.5,2.1,33.5,3.1c11,0.9,19.2,2.2,18.3,2.7
		c-0.9,0.6-60.8,0.9-133.1,0.8S753.4,544.7,747.4,544.3L747.4,544.3z M83,510.9c-47.3-0.4-84.2-0.9-81.9-1.1s10.8-1.5,18.9-3
		c8.1-1.5,17.4-2.7,20.5-2.7c4.6,0,6.2-0.7,7.9-3.1c1.1-1.7,3.6-3.8,5.5-4.7c1.9-0.8,5.4-1.5,7.8-1.5c2.4,0,5.7,0.9,7.3,2
		c2.8,1.9,3,1.8,5.1-4.4c1.2-3.5,4.1-8.3,6.5-10.5c2.4-2.2,5.9-4.9,7.8-5.9s6.7-2.4,10.8-3.3c4.7-0.9,10.1-1.1,14.9-0.4
		c4.5,0.7,9.7,2.6,12.9,4.8c3,2,7.1,6.1,9.2,9.1c2.1,3,4.2,7.8,4.6,10.8l0.7,5.4l3.1-3c1.7-1.7,5.3-3.5,8.1-4
		c2.8-0.5,7.3-0.3,10.2,0.6c2.9,0.9,6.9,3.5,9,6l3.8,4.5l31.2,1.6c17.1,0.9,31.4,1.9,31.7,2.2c0.3,0.3-7.1,0.5-16.4,0.5
		s-25.1,0.2-35.1,0.4S130.3,511.3,83,510.9L83,510.9z"/>
</g>
</svg>
